Coordinates
version=1
nRows=35
nColumns=18
inDegrees=yes

Units are S.I. units (second, meters, Newtons, ...)
Angles are in degrees.

endheader
time	ground_thorax_rot_x	ground_thorax_rot_y	ground_thorax_rot_z	ground_thorax_tx	ground_thorax_ty	ground_thorax_tz	clav_prot	clav_elev	scapula_abduction	scapula_elevation	scapula_upward_rot	scapula_winging	plane_elv	shoulder_elv	axial_rot	elbow_flexion	pro_sup
      6.26000000	      1.61765290	     -4.83714826	     -9.00970799	     -0.00423131	      0.00403036	     -0.00078352	    -22.21454180	     -5.44358551	     -9.99574840	     -5.57567063	     15.69698482	      5.10836529	     15.73378794	     21.49621406	     19.39625723	      0.00000000	     34.32000000
      6.27000000	      1.41548694	     -4.85497076	     -8.93734112	     -0.00423131	      0.00403036	     -0.00078352	    -22.10771636	     -5.72800112	    -10.02717600	     -5.66979541	     15.22912853	      5.32173435	     13.45787574	     21.33088229	     20.28029650	      0.00000000	     34.32000000
      6.28000000	      1.39688398	     -4.85075379	     -8.93405321	     -0.00423131	      0.00403036	     -0.00078352	    -22.16522560	     -5.75119480	    -10.27420896	     -5.62679627	     14.97391325	      5.39516825	     12.21814679	     21.25259109	     20.29337715	      0.00000000	     34.32000000
      6.29000000	      1.34930534	     -4.86446423	     -8.99435103	     -0.00423131	      0.00403036	     -0.00078352	    -22.27886633	     -5.73637205	    -10.47895852	     -5.62012795	     14.96575090	      5.39821522	     11.22019456	     20.96902480	     20.04309647	      0.00000000	     34.32000000
      6.30000000	      1.33233968	     -4.90271872	     -8.99892823	     -0.00423131	      0.00403036	     -0.00078352	    -22.24989221	     -5.75324852	    -10.41299146	     -5.63638520	     14.98576049	      5.39792202	      9.70060186	     20.68844605	     20.72991693	      0.00000000	     34.32000000
      6.31000000	      1.61181136	     -4.82211015	     -9.10243214	     -0.00423131	      0.00403036	     -0.00078352	    -22.29021338	     -5.71244959	    -10.52183241	     -5.59499433	     14.93607001	      5.39695758	      8.90431426	     20.82430194	     20.96700246	      0.00000000	     34.32000000
      6.32000000	      1.75806648	     -4.65580298	     -9.05843882	     -0.00423131	      0.00403036	     -0.00078352	    -22.32134271	     -5.76667366	    -10.66306729	     -5.59610086	     14.76862683	      5.45945001	      7.09360919	     20.92472343	     21.50721782	      0.00000000	     34.32000000
      6.33000000	      1.68818917	     -4.70497947	     -9.04484042	     -0.00423131	      0.00403036	     -0.00078352	    -22.23404089	     -5.94467278	    -10.61871923	     -5.66465369	     14.52100690	      5.58161420	      5.67340415	     20.85720944	     22.08926174	      0.00000000	     34.32000000
      6.34000000	      1.32934844	     -4.77058050	     -8.94446719	     -0.00423131	      0.00403036	     -0.00078352	    -22.22140604	     -6.07329632	    -10.57101499	     -5.76121289	     14.51547540	      5.63121332	      3.91354112	     19.94643267	     23.96949831	      0.00000000	     34.32000000
      6.35000000	      1.37359809	     -4.84056808	     -9.08125914	     -0.00423131	      0.00403036	     -0.00078352	    -22.21404199	     -6.02642966	    -10.60224124	     -5.71049129	     14.45919401	      5.62657134	      3.88742987	     19.84691096	     23.98297763	      0.00000000	     34.32000000
      6.36000000	      1.31748236	     -4.57817417	     -8.89174508	     -0.00423131	      0.00403036	     -0.00078352	    -22.40824527	     -5.77714137	    -10.91734347	     -5.56397036	     14.58959424	      5.51109641	      1.73573415	     19.02186032	     26.21731780	      0.00000000	     34.32000000
      6.37000000	      1.34495892	     -4.50474605	     -8.85521863	     -0.00423131	      0.00403036	     -0.00078352	    -22.41236375	     -5.75997255	    -11.03652934	     -5.50475833	     14.40735076	      5.54859243	      0.27165558	     18.87675250	     28.16460702	      0.00000000	     34.32000000
      6.38000000	      1.40247933	     -4.39155741	     -8.82213410	     -0.00423131	      0.00403036	     -0.00078352	    -22.41254620	     -5.86800360	    -11.18460120	     -5.51315625	     14.11519795	      5.65958881	     -1.34226301	     18.96466495	     30.13984962	      0.00000000	     34.32000000
      6.39000000	      1.44479806	     -4.28286343	     -8.80683174	     -0.00423131	      0.00403036	     -0.00078352	    -22.42565955	     -6.02143995	    -11.34194997	     -5.55785084	     13.82642441	      5.78780698	     -2.80656879	     19.09712876	     31.85696678	      0.00000000	     34.32000000
      6.40000000	      1.45511936	     -4.23546445	     -8.82472038	     -0.00423131	      0.00403036	     -0.00078352	    -22.46179290	     -6.10984950	    -11.48894964	     -5.58205371	     13.64760948	      5.86627674	     -3.82057272	     19.08971134	     33.09497684	      0.00000000	     34.32000000
      6.41000000	      1.43898807	     -4.25137062	     -8.84021684	     -0.00423131	      0.00403036	     -0.00078352	    -22.47248645	     -6.09714151	    -11.56407247	     -5.54921167	     13.55549326	      5.88395895	     -4.50697304	     18.95649918	     34.01778304	      0.00000000	     34.32000000
      6.42000000	      1.46860888	     -4.21681357	     -8.83255067	     -0.00423131	      0.00403036	     -0.00078352	    -22.48720469	     -6.00433866	    -11.64564827	     -5.46322912	     13.49538726	      5.86376373	     -5.01818341	     18.91047965	     34.19603289	      0.00000000	     34.32000000
      6.43000000	      1.45285141	     -4.12924327	     -8.81490929	     -0.00423131	      0.00403036	     -0.00078352	    -22.53638390	     -5.94591521	    -11.75793033	     -5.41505491	     13.47134756	      5.84990679	     -5.83071793	     18.72257334	     35.06541710	      0.00000000	     34.32000000
      6.44000000	      1.37624015	     -3.95514220	     -8.75997252	     -0.00423131	      0.00403036	     -0.00078352	    -22.69164028	     -5.94797931	    -12.07236922	     -5.40517890	     13.39075236	      5.87738566	     -6.79882264	     18.35969079	     36.76238452	      0.00000000	     34.32000000
      6.45000000	      1.29899222	     -3.76709247	     -8.73466431	     -0.00423131	      0.00403036	     -0.00078352	    -22.90226776	     -5.94987215	    -12.46508159	     -5.40609235	     13.33934020	      5.89914304	     -7.85157796	     17.82947429	     38.83496498	      0.00000000	     34.32000000
      6.46000000	      1.21169274	     -3.55220578	     -8.74223984	     -0.00423131	      0.00403036	     -0.00078352	    -23.11091112	     -5.99368864	    -12.84994557	     -5.43672462	     13.27833894	      5.93764221	     -9.17444427	     17.19230696	     41.66984399	      0.00000000	     34.32000000
      6.47000000	      1.39352329	     -3.33057064	     -8.71507324	     -0.00423131	      0.00403036	     -0.00078352	    -23.33834743	     -5.69442280	    -13.19673592	     -5.27141088	     13.47507961	      5.78400290	    -10.60206337	     16.27397727	     46.76381515	      0.00000000	     34.32000000
      6.48000000	      1.42756414	     -3.30582709	     -8.68581835	     -0.00423131	      0.00403036	     -0.00078352	    -23.35236364	     -5.54353749	    -13.26853203	     -5.15100114	     13.45450996	      5.73354058	    -12.14196543	     15.58140410	     50.83656304	      0.00000000	     34.32000000
      6.49000000	      1.41939426	     -3.35818935	     -8.66484204	     -0.00423131	      0.00403036	     -0.00078352	    -23.30300969	     -5.46873949	    -13.28129830	     -5.05486327	     13.31712059	      5.73831740	    -13.49833761	     15.26413889	     52.78472006	      0.00000000	     34.32000000
      6.50000000	      1.44742663	     -3.30650826	     -8.69422760	     -0.00423131	      0.00403036	     -0.00078352	    -23.36037320	     -5.44989985	    -13.44591178	     -5.01648787	     13.21161237	      5.75852723	    -14.79639030	     15.16755304	     54.33582754	      0.00000000	     34.32000000
      6.51000000	      1.44745818	     -3.21161422	     -8.77563317	     -0.00423131	      0.00403036	     -0.00078352	    -23.44628836	     -5.52022497	    -13.71284769	     -5.01478567	     12.97725565	      5.84293078	    -14.46452480	     15.81219198	     48.60054416	      0.00000000	     34.32000000
      6.52000000	      1.40465301	     -3.19819369	     -8.67182659	     -0.00423131	      0.00403036	     -0.00078352	    -23.39214268	     -5.45466487	    -13.50101173	     -5.02138975	     13.20889176	      5.76156749	    -17.17691010	     15.52261859	     51.03087280	      0.00000000	     34.32000000
      6.53000000	      1.45374376	     -3.03250017	     -8.70216749	     -0.00423131	      0.00403036	     -0.00078352	    -23.54977462	     -5.36836559	    -13.71232020	     -5.00098372	     13.34801997	      5.69934404	    -19.08455068	     15.12796437	     56.46544481	      0.00000000	     34.32000000
      6.54000000	      1.46972910	     -3.10825322	     -8.61487717	     -0.00423131	      0.00403036	     -0.00078352	    -23.41268200	     -5.32773390	    -13.50575439	     -4.95246996	     13.31407212	      5.69049065	    -20.03312218	     15.68251168	     52.29898517	      0.00000000	     34.32000000
      6.55000000	      1.47113543	     -2.86439445	     -8.73577564	     -0.00423131	      0.00403036	     -0.00078352	    -23.70712398	     -5.51383253	    -14.24669775	     -4.98817047	     12.83247535	      5.87983308	    -18.44962483	     16.75396643	     43.61938646	      0.00000000	     34.32000000
      6.56000000	      1.63859867	     -2.87437055	     -8.79843861	     -0.00423131	      0.00403036	     -0.00078352	    -23.73226590	     -5.52689761	    -14.39172616	     -4.95210342	     12.65028278	      5.92911476	    -18.17874661	     17.25600249	     41.93263227	      0.00000000	     34.32000000
      6.57000000	      1.69058890	     -2.95604280	     -8.88102904	     -0.00423131	      0.00403036	     -0.00078352	    -23.72753541	     -5.51587730	    -14.41158598	     -4.93163998	     12.60590740	      5.93574921	    -18.22559236	     17.20657504	     41.95140793	      0.00000000	     34.32000000
      6.58000000	      1.44030699	     -2.65970964	     -8.86015243	     -0.00423131	      0.00403036	     -0.00078352	    -23.95670676	     -5.69211324	    -14.69847177	     -5.11114531	     12.71844102	      5.97413458	    -21.33404621	     16.78720584	     43.71589750	      0.00000000	     34.32000000
      6.59000000	      1.43352660	     -2.74789719	     -8.94618915	     -0.00423131	      0.00403036	     -0.00078352	    -23.94275249	     -5.65717960	    -14.70723532	     -5.07228233	     12.67617068	      5.97184300	    -21.35703798	     16.74698746	     43.73734328	      0.00000000	     34.32000000
      6.60000000	      1.39350136	     -3.02316723	     -8.66332953	     -0.00423131	      0.00403036	     -0.00078352	    -23.63961832	     -5.21985624	    -13.95327120	     -4.86986441	     13.26120301	      5.66849871	    -25.89782375	     15.46051735	     53.34475203	      0.00000000	     34.32000000
